<svg xmlns="http://www.w3.org/2000/svg" xmlns:xlink="http://www.w3.org/1999/xlink" width="20" height="20" preserveAspectRatio="xMidYMid meet" viewBox="0 0 20 20" style="-ms-transform: rotate(360deg); -webkit-transform: rotate(360deg); transform: rotate(360deg);"><path d="M13.9 13.8H8.5c-.2 0-.3-.1-.3-.4v-3h5.7c1.1 0 2.1-.9 2.1-2.1c0-1.2-1-2.1-2.1-2.1H8.2V4.1C8.2 2.9 7.2 2 6 2c-1.1 0-2 .9-2 2.1v9.2C4 16 5.5 17.9 8.6 18H14c1.1 0 2.1-1 2.1-2.1c-.1-1.2-1.1-2.1-2.2-2.1z" fill="#626262"/><rect x="0" y="0" width="20" height="20" fill="rgba(0, 0, 0, 0)" /></svg>